<svg width="200" height="54" fill="none" xmlns="http://www.w3.org/2000/svg"><path d="M195.875 39.92c-.756-.787-1.741-1.18-2.953-1.18-.402 0-.792.06-1.17.18-.378.12-.681.253-.909.4-.228.147-.445.32-.649.517a4.203 4.203 0 00-.388.41 7.93 7.93 0 00-.123.175v-1.466h-1.461V49.03h1.461v-5.564c0-.977.3-1.78.9-2.408.599-.629 1.345-.943 2.237-.943.797 0 1.449.268 1.957.805.507.536.761 1.245.761 2.126v5.984h1.471v-5.984c0-1.298-.378-2.34-1.134-3.125zm-12.163 6.83c-.718.747-1.58 1.121-2.585 1.121-1.004 0-1.866-.377-2.584-1.132-.719-.755-1.078-1.672-1.078-2.751 0-1.087.359-2.004 1.078-2.752.718-.748 1.58-1.122 2.584-1.122 1.005 0 1.867.374 2.585 1.122.719.748 1.078 1.667 1.078 2.757s-.359 2.008-1.078 2.756zm-2.58-8.01c-1.423 0-2.634.508-3.632 1.523-.998 1.015-1.497 2.258-1.497 3.73s.499 2.714 1.497 3.725c.998 1.011 2.209 1.516 3.632 1.516 1.424 0 2.633-.505 3.627-1.516.995-1.011 1.492-2.253 1.492-3.725s-.497-2.715-1.492-3.73c-.994-1.015-2.203-1.522-3.627-1.522zm-7.801-4.088a.91.91 0 00-.67.272.914.914 0 00-.27.671c0 .267.09.49.27.671a.91.91 0 00.67.272c.266 0 .489-.09.669-.272a.912.912 0 00.271-.67.912.912 0 00-.271-.672.906.906 0 00-.669-.272zm-.725 14.377h1.46V38.956h-1.46v10.073zm-2.32-1.24a2.78 2.78 0 01-.669.082c-.906.008-1.359-.515-1.359-1.567v-5.985h2.197v-1.363h-2.197v-3.36h-1.359v2.315c0 .697-.279 1.045-.838 1.045h-1.154v1.363h1.89v5.985c0 .936.243 1.658.73 2.167.487.509 1.163.763 2.028.763.532.008 1.005-.095 1.42-.307v-1.363l-.183.082a5.62 5.62 0 01-.506.143zm-7.622-1.178c-.238.28-.62.56-1.144.84a3.48 3.48 0 01-1.665.42c-.961 0-1.793-.374-2.498-1.122-.705-.748-1.058-1.666-1.058-2.756 0-1.09.353-2.009 1.058-2.757.705-.748 1.537-1.122 2.498-1.122a3.4 3.4 0 011.093.175c.347.115.63.247.848.394.218.147.42.32.608.517.187.199.308.335.362.41.055.076.096.133.123.175l1.052-1.046-.439-.481c-.293-.335-.778-.672-1.456-1.01a4.838 4.838 0 00-2.191-.507c-1.362 0-2.539.51-3.53 1.532-.991 1.021-1.487 2.26-1.487 3.715s.494 2.693 1.482 3.714c.987 1.022 2.166 1.532 3.535 1.532.49 0 .972-.077 1.445-.23.474-.154.861-.321 1.16-.502.3-.181.586-.39.858-.625.273-.236.451-.404.536-.503.086-.099.149-.175.19-.23l-1.042-.943-.338.41zm-17.415-3.35c.116-.855.501-1.593 1.155-2.214.654-.622 1.42-.933 2.299-.933.878 0 1.629.297 2.252.891.624.595.99 1.346 1.099 2.255h-6.805zm3.454-4.52c-1.322 0-2.471.51-3.449 1.532-.977 1.021-1.466 2.26-1.466 3.715s.494 2.693 1.482 3.714c.987 1.022 2.166 1.532 3.535 1.532a4.82 4.82 0 001.476-.23c.48-.154.872-.321 1.175-.502a5.47 5.47 0 00.848-.625c.262-.236.432-.404.511-.503.078-.099.138-.175.178-.23l-.939-.943-.358.41c-.225.28-.606.56-1.144.84a3.73 3.73 0 01-1.747.42c-.934 0-1.746-.33-2.437-.993-.691-.663-1.064-1.449-1.119-2.357l8.163.02.103-.758c0-1.456-.46-2.66-1.38-3.613-.919-.953-2.064-1.43-3.432-1.43zm-6.269 9.048a2.78 2.78 0 01-.669.082c-.906.008-1.359-.515-1.359-1.567v-5.985h2.197v-1.363h-2.197v-3.36h-1.359v2.315c0 .697-.279 1.045-.837 1.045h-1.155v1.363h1.89v5.985c0 .936.244 1.658.731 2.167.487.509 1.163.763 2.028.763a2.981 2.981 0 001.42-.307v-1.363l-.184.082a5.523 5.523 0 01-.506.143zm-8.497-1.04c-.718.748-1.58 1.122-2.585 1.122s-1.866-.377-2.585-1.132c-.718-.755-1.077-1.672-1.077-2.751 0-1.087.359-2.004 1.077-2.752.719-.748 1.58-1.122 2.585-1.122s1.867.374 2.585 1.122c.719.748 1.078 1.667 1.078 2.757s-.359 2.008-1.078 2.756zm-2.58-8.008c-1.423 0-2.634.507-3.632 1.522-.998 1.015-1.496 2.258-1.496 3.73s.498 2.714 1.496 3.725c.998 1.011 2.209 1.516 3.632 1.516 1.424 0 2.633-.505 3.627-1.516.995-1.011 1.492-2.253 1.492-3.725s-.497-2.715-1.492-3.73c-.994-1.015-2.203-1.522-3.627-1.522zm-7.223.169c-.392.113-.705.24-.94.379-.235.14-.454.3-.659.482a3.42 3.42 0 00-.388.38 4.654 4.654 0 00-.123.168v-1.363h-1.461V49.03h1.461v-5.564c0-.963.307-1.745.92-2.347a3.05 3.05 0 012.217-.901h.633V38.74h-.419c-.436 0-.849.056-1.241.169zm-8.048 7.829c-.685.755-1.459 1.132-2.324 1.132-.906 0-1.725-.387-2.457-1.163-.732-.775-1.099-1.68-1.099-2.715s.367-1.94 1.099-2.715c.732-.776 1.551-1.164 2.457-1.164.865 0 1.639.378 2.324 1.132.684.755 1.027 1.67 1.027 2.747 0 1.076-.343 1.991-1.027 2.746zm-2.324-7.998c-.429 0-.847.063-1.252.19a4.38 4.38 0 00-.996.43 4.65 4.65 0 00-.72.548c-.221.205-.368.35-.439.436a2.325 2.325 0 00-.149.19v-1.579h-1.461v14.48h1.461V47.45l.143.195c.103.123.254.271.455.446.201.174.437.346.71.517.272.171.608.318 1.006.44a4.16 4.16 0 001.242.185c1.287 0 2.411-.514 3.371-1.542.961-1.028 1.441-2.261 1.441-3.699 0-1.438-.482-2.673-1.446-3.705-.964-1.031-2.086-1.547-3.366-1.547zM99.8 46.739c-.685.755-1.46 1.132-2.324 1.132-.906 0-1.725-.387-2.458-1.163-.731-.775-1.098-1.68-1.098-2.715s.367-1.94 1.098-2.715c.733-.776 1.552-1.164 2.458-1.164.864 0 1.64.378 2.324 1.132.684.755 1.027 1.67 1.027 2.747 0 1.076-.343 1.991-1.027 2.746zm-2.324-7.998c-.43 0-.847.063-1.252.19a4.39 4.39 0 00-.996.43c-.259.16-.5.343-.72.548a5.85 5.85 0 00-.44.436c-.07.085-.12.148-.148.19v-1.579h-1.46v14.48h1.46V47.45l.143.195c.102.123.254.271.455.446.2.174.437.346.71.517.272.171.608.318 1.006.44a4.16 4.16 0 001.242.185c1.287 0 2.411-.514 3.371-1.542.961-1.028 1.441-2.261 1.441-3.699 0-1.438-.482-2.673-1.446-3.705-.964-1.031-2.086-1.547-3.366-1.547zm-9.547 8.008c-.719.748-1.58 1.122-2.585 1.122s-1.866-.377-2.585-1.132c-.719-.755-1.078-1.672-1.078-2.751 0-1.087.36-2.004 1.078-2.752.719-.748 1.58-1.122 2.585-1.122s1.866.374 2.585 1.122c.718.748 1.078 1.667 1.078 2.757s-.36 2.008-1.078 2.756zm-2.58-8.008c-1.423 0-2.634.507-3.632 1.522-.998 1.015-1.496 2.258-1.496 3.73s.498 2.714 1.496 3.725c.998 1.011 2.209 1.516 3.632 1.516s2.633-.505 3.627-1.516c.994-1.011 1.491-2.253 1.491-3.725s-.497-2.715-1.49-3.73c-.995-1.015-2.205-1.522-3.628-1.522zm-7.223.169c-.392.113-.705.24-.94.379-.235.14-.455.3-.659.482-.204.18-.334.307-.388.38a3.127 3.127 0 00-.123.168v-1.363h-1.461V49.03h1.461v-5.564c0-.963.306-1.745.92-2.347a3.05 3.05 0 012.216-.901h.634V38.74h-.419c-.436 0-.85.056-1.241.169zm-6.535 7.701c-.239.28-.62.56-1.144.84a3.49 3.49 0 01-1.666.42c-.96 0-1.793-.374-2.498-1.122-.705-.748-1.057-1.666-1.057-2.756 0-1.09.352-2.009 1.057-2.757.705-.748 1.538-1.122 2.498-1.122.382 0 .746.058 1.093.175.348.115.63.247.848.394.218.147.421.32.608.517.188.199.309.335.363.41.055.076.095.133.123.175l1.052-1.046-.44-.481c-.292-.335-.778-.672-1.455-1.01a4.84 4.84 0 00-2.192-.507c-1.362 0-2.539.51-3.53 1.532-.99 1.021-1.486 2.26-1.486 3.715s.494 2.693 1.481 3.714c.988 1.022 2.166 1.532 3.535 1.532.49 0 .973-.077 1.446-.23a5.67 5.67 0 001.16-.502c.3-.181.585-.39.858-.625a6.05 6.05 0 00.536-.503c.085-.099.148-.175.189-.23l-1.042-.943-.337.41zm43.273-23.431c-.191.081-.46.157-.808.225a5.15 5.15 0 01-.991.102c-.722 0-1.321-.239-1.798-.717-.477-.478-.715-1.093-.715-1.844V10.493h4.189v-3.77h-4.189V0h-3.76v4.201c0 1.68-.694 2.521-2.084 2.521h-2.105v3.771h3.781v10.494c-.014 4.194 1.934 6.291 5.844 6.291 1.13 0 2.111-.136 2.942-.41v-3.77l-.306.081zm-16.582-6.825a21.486 21.486 0 00-2.472-1.035c-.879-.308-1.7-.564-2.462-.769-.763-.205-1.397-.505-1.9-.902-.505-.396-.756-.888-.756-1.475 0-.56.262-1.049.786-1.466.524-.416 1.236-.625 2.136-.625.667 0 1.33.154 1.991.461.661.308 1.097.56 1.308.759.211.198.372.351.48.46l2.718-2.725-.265-.307a8.808 8.808 0 00-.788-.666 9.903 9.903 0 00-1.256-.82c-.477-.266-1.093-.492-1.85-.676a9.824 9.824 0 00-2.338-.277c-2.03 0-3.723.594-5.078 1.783-1.356 1.189-2.034 2.555-2.034 4.099 0 1.12.252 2.08.757 2.88.504.799 1.14 1.386 1.91 1.762.77.376 1.594.717 2.472 1.025.879.307 1.7.567 2.463.778.762.212 1.396.513 1.9.902.504.39.756.878.756 1.466 0 .765-.28 1.376-.838 1.834-.558.458-1.396.686-2.513.686-.926 0-1.829-.228-2.708-.686-.878-.458-1.45-.83-1.716-1.117a7.685 7.685 0 01-.603-.717l-2.717 2.725.306.39c.19.246.5.543.93.891.429.349.93.693 1.502 1.035.572.342 1.304.636 2.196.882.893.245 1.83.368 2.81.368 2.234 0 4.049-.614 5.445-1.844 1.397-1.23 2.095-2.712 2.095-4.447 0-1.12-.252-2.077-.756-2.87-.504-.792-1.141-1.38-1.91-1.762zm-20.095 1.27c0 1.859-.473 3.304-1.42 4.335-.947 1.032-2.217 1.547-3.81 1.547-1.363 0-2.504-.478-3.423-1.434-.92-.957-1.38-2.16-1.38-3.607V6.722h-4.188v11.744c0 2.691.752 4.833 2.257 6.425 1.506 1.592 3.47 2.387 5.896 2.387.708 0 1.403-.088 2.084-.266.681-.178 1.246-.379 1.696-.604.45-.226.868-.479 1.256-.759.389-.28.644-.482.767-.604l.265-.267v2.09h4.19V6.722h-4.19v10.904zM53.31 20.844c-1.124 1.216-2.442 1.824-3.954 1.824s-2.833-.608-3.964-1.824c-1.13-1.216-1.696-2.705-1.696-4.468 0-1.762.566-3.252 1.696-4.468 1.13-1.216 2.452-1.824 3.964-1.824s2.83.608 3.954 1.824c1.124 1.216 1.686 2.706 1.686 4.468 0 1.763-.562 3.252-1.686 4.468zm1.686-12.03l-.695-.615c-.45-.424-1.178-.847-2.186-1.27a8.143 8.143 0 00-3.188-.636c-2.534 0-4.734.98-6.6 2.94-1.866 1.962-2.8 4.342-2.8 7.143s.934 5.182 2.8 7.143c1.866 1.96 4.066 2.94 6.6 2.94.709 0 1.404-.091 2.084-.276.681-.184 1.247-.39 1.696-.615.45-.225.869-.478 1.257-.758.388-.28.644-.482.766-.605l.266-.266v1.721c0 1.845-.548 3.348-1.645 4.51-1.096 1.16-2.496 1.741-4.2 1.741a7.227 7.227 0 01-2.206-.338c-.708-.225-1.287-.478-1.737-.758a9.07 9.07 0 01-1.277-.963c-.401-.362-.664-.615-.786-.759a3.802 3.802 0 01-.266-.338l-2.738 2.726.347.43c.218.3.579.656 1.083 1.066.504.41 1.09.817 1.757 1.22.668.403 1.52.751 2.555 1.045a11.91 11.91 0 003.269.44c2.82 0 5.197-.97 7.131-2.91 1.935-1.94 2.902-4.324 2.902-7.153V6.722h-4.19v2.09zM29.01 21.417L23.146 6.722h-4.393l8.174 20.146h4.168l8.173-20.146h-4.393l-5.864 14.695zm-15.83-3.791c0 1.885-.48 3.337-1.441 4.355-.96 1.018-2.292 1.526-3.995 1.526-1.09 0-1.958-.253-2.605-.758s-.97-1.093-.97-1.762c0-.724.231-1.326.694-1.804.463-.478 1.07-.786 1.819-.922l6.498-1.046v.41zm1.839-9.151c-1.567-1.456-3.576-2.183-6.028-2.183-.98 0-1.931.133-2.85.4-.92.266-1.66.57-2.218.912-.558.341-1.086.727-1.583 1.158-.498.43-.818.73-.96.901-.144.17-.256.311-.338.42L3.76 12.81l.551-.717c.328-.451.923-.898 1.788-1.342.865-.445 1.83-.667 2.892-.667 1.226 0 2.23.362 3.014 1.087.783.724 1.175 1.618 1.175 2.684l-7.336 1.271c-1.812.3-3.239 1.011-4.28 2.131C.52 18.376 0 19.764 0 21.416c0 1.531.674 2.89 2.023 4.08 1.349 1.188 3.045 1.782 5.088 1.782a8.15 8.15 0 002.064-.266c.68-.178 1.246-.379 1.696-.604.45-.226.868-.479 1.256-.759s.647-.482.777-.604c.13-.123.221-.212.276-.267v2.09h4.189V13.855c0-2.132-.784-3.925-2.35-5.38z" fill="#444141"/><path d="M136.474 6.723c5.666 0 10.258 4.606 10.258 10.288S142.14 27.3 136.474 27.3c-5.665 0-10.257-4.606-10.257-10.288V6.723h10.257z" fill="#40C1EA"/><path d="M172.9 17.01c0 5.683-4.593 10.29-10.258 10.29-5.665 0-10.257-4.607-10.257-10.29 0-5.681 4.592-10.288 10.257-10.288H172.9v10.289z" fill="#59C13E"/><path d="M179.485 16.58c0-5.682 4.593-10.288 10.258-10.288 5.665 0 10.257 4.606 10.257 10.288 0 5.683-4.592 10.289-10.257 10.289h-10.258V16.58z" fill="#F9AE0C"/></svg>