<svg width="27" height="23" fill="none" xmlns="http://www.w3.org/2000/svg"><g filter="url(#filter0_d_234_2659)"><path d="M0 2.168v14.664c0 .827.67 1.497 1.497 1.497h24.006c.826 0 1.497-.67 1.497-1.497V2.168c0-.827-.67-1.497-1.497-1.497H1.497A1.495 1.495 0 000 2.168zM10.146 13.52h-5.24c-.826 0-1.497-.67-1.497-1.497V6.49c0-.827.67-1.497 1.498-1.497h5.24c.826 0 1.497.67 1.497 1.497v5.533c0 .827-.67 1.497-1.498 1.497zm14.098-1.282h-9.797a.749.749 0 010-1.497h9.797a.749.749 0 110 1.497zm0-4.332h-9.797a.749.749 0 110-1.497h9.797a.749.749 0 110 1.497z" fill="#BD0505"/></g><defs><filter id="filter0_d_234_2659" x="-4" y=".671" width="35" height="25.658" filterUnits="userSpaceOnUse" color-interpolation-filters="sRGB"><feFlood flood-opacity="0" result="BackgroundImageFix"/><feColorMatrix in="SourceAlpha" values="0 0 0 0 0 0 0 0 0 0 0 0 0 0 0 0 0 0 127 0" result="hardAlpha"/><feOffset dy="4"/><feGaussianBlur stdDeviation="2"/><feComposite in2="hardAlpha" operator="out"/><feColorMatrix values="0 0 0 0 0 0 0 0 0 0 0 0 0 0 0 0 0 0 0.25 0"/><feBlend in2="BackgroundImageFix" result="effect1_dropShadow_234_2659"/><feBlend in="SourceGraphic" in2="effect1_dropShadow_234_2659" result="shape"/></filter></defs></svg>