<svg width="39" height="39" fill="none" xmlns="http://www.w3.org/2000/svg"><path d="M20.525 37.8c-.66.255-1.39.255-2.05 0v0A27.523 27.523 0 011 12.186v-8.34A2.846 2.846 0 013.846 1h31.308A2.846 2.846 0 0138 3.846v8.31a27.522 27.522 0 01-17.475 25.645v0z" stroke="#fff" stroke-linecap="round" stroke-linejoin="round"/><path d="M23.77 15.23h-8.54a2.846 2.846 0 00-2.845 2.847v5.692a2.846 2.846 0 002.846 2.846h8.538a2.846 2.846 0 002.846-2.846v-5.692a2.846 2.846 0 00-2.846-2.846z" stroke="#fff" stroke-linecap="round" stroke-linejoin="round"/><path d="M23.77 15.23v-2.845a4.27 4.27 0 00-7.289-3.02 4.27 4.27 0 00-1.25 3.02v2.846" stroke="#fff" stroke-linecap="round" stroke-linejoin="round"/></svg>