<svg width="45" height="45" fill="none" xmlns="http://www.w3.org/2000/svg"><path d="M22.49 20.553a.979.979 0 00-.978.979v7.826a.979.979 0 001.956 0v-7.826a.979.979 0 00-.978-.979zm-2.59.063a.98.98 0 00-1.26.571l-2.02 5.385-2.019-5.383a.984.984 0 00-1.26-.571.976.976 0 00-.571 1.26l2.935 7.826a.978.978 0 001.831 0l2.935-7.826a.978.978 0 00-.571-1.262zm6.503-.063a.979.979 0 00-.978.979v7.826a.979.979 0 001.957 0v-2.935h.978a2.938 2.938 0 002.935-2.935 2.938 2.938 0 00-2.935-2.935h-1.957zm2.935 2.935a.98.98 0 01-.978.979h-.978V22.51h.978a.98.98 0 01.978.978z" fill="#fff"/><path d="M44.948 17.293a.98.98 0 00-.798-.655L29.98 14.76 23.375 1.517a.978.978 0 00-1.75.002l-6.607 13.24L.85 16.639A.977.977 0 00.286 18.3l10.392 10.392-2.831 14.16a.984.984 0 00.366.97c.297.229.7.264 1.031.098l13.258-6.629L35.76 43.92a1 1 0 00.438.104.981.981 0 00.955-1.172l-2.831-14.16L44.713 18.3a.976.976 0 00.235-1.006zM32.573 27.677a.981.981 0 00-.269.885l2.544 12.714-11.908-5.954a.967.967 0 00-.877 0l-11.907 5.953 2.543-12.713a.98.98 0 00-.268-.885l-9.36-9.36 12.72-1.687a.98.98 0 00.747-.532l5.964-11.951 5.962 11.95a.97.97 0 00.747.533l12.722 1.687-9.36 9.36z" fill="#fff"/></svg>