<svg width="46" height="45" fill="none" xmlns="http://www.w3.org/2000/svg"><path d="M10.466 25.303c1.667-.736 3.742-1.651 3.742-4.31 0-2.143-1.77-3.887-3.947-3.887-2.176 0-3.946 1.744-3.946 3.888 0 .402.33.729.74.729.408 0 .74-.327.74-.73 0-1.34 1.106-2.43 2.466-2.43s2.467 1.09 2.467 2.43c0 1.631-1.09 2.195-2.867 2.98-1.58.696-3.546 1.564-3.546 3.97 0 .403.33.729.74.729h6.413c.408 0 .74-.326.74-.73a.735.735 0 00-.74-.728H7.91c.31-.874 1.225-1.325 2.555-1.911z" fill="#fff"/><path d="M43.337 35.843l-3.042 1.171A22.106 22.106 0 0045.682 22.5c0-6.01-2.376-11.66-6.69-15.91S28.942 0 22.84 0c-6.1 0-11.836 2.34-16.15 6.59S0 16.49 0 22.5s2.376 11.66 6.69 15.91S16.74 45 22.84 45c4.7 0 9.213-1.395 13.053-4.033a.722.722 0 00.184-1.015.747.747 0 00-1.03-.18 21.455 21.455 0 01-12.206 3.77c-5.706 0-11.07-2.189-15.105-6.163C3.702 33.405 1.48 28.121 1.48 22.5c0-5.62 2.222-10.905 6.256-14.88 4.035-3.973 9.4-6.162 15.105-6.162 5.706 0 11.07 2.189 15.104 6.163 4.035 3.974 6.257 9.258 6.257 14.879 0 5.213-1.905 10.122-5.392 13.975l.613-3.743a.73.73 0 00-.613-.836.739.739 0 00-.848.604l-.793 4.845a1.48 1.48 0 00.55 1.412 1.53 1.53 0 001.517.23l4.64-1.786a.726.726 0 00.42-.944.744.744 0 00-.96-.414z" fill="#fff"/><path d="M29.243 15.272l-4.736 13.995c-.13.382.08.795.468.922a.74.74 0 00.936-.461l4.736-13.995a.727.727 0 00-.468-.922.743.743 0 00-.936.46zm3.508 13.313a.746.746 0 001.003-.297l5.525-10.108a.72.72 0 00-.017-.719.742.742 0 00-.635-.355h-6.314a.734.734 0 00-.74.729c0 .403.331.729.74.729h5.075l-4.938 9.033a.724.724 0 00.301.988zm-11.489.087c.409 0 .74-.326.74-.73V26.34h.839c.409 0 .74-.326.74-.729a.734.734 0 00-.74-.729h-.839v-7.046a.735.735 0 00-.74-.73.735.735 0 00-.74.73v7.046h-3.79l2.082-6.837a.727.727 0 00-.496-.907.742.742 0 00-.922.488l-2.365 7.766-.002.006v.004l-.004.012a.7.7 0 00-.014.056l-.005.035-.005.036a.63.63 0 00-.003.056v.016c0 .022 0 .043.003.065v.009l.009.057.002.015.008.028a.72.72 0 00.097.22c.002.004.003.007.006.01l.023.03c.006.01.013.019.02.027l.011.013c.05.057.11.107.178.147l.03.018.012.006c.018.01.037.018.056.026l.006.002c.02.009.042.016.064.023h.001l.005.001a.768.768 0 00.2.03h4.793v1.604c0 .402.332.729.74.729z" fill="#fff"/></svg>