<svg width="47" height="45" fill="none" xmlns="http://www.w3.org/2000/svg"><path d="M9.922 34.96V22.225c0-3.378 1.43-6.617 3.974-9.005 2.544-2.388 5.994-3.73 9.592-3.73 3.598 0 7.048 1.342 9.592 3.73 2.544 2.388 3.974 5.627 3.974 9.005V34.96M23.488 1v4.245M8.317 3.738l3.21 3.014m27.132-3.014l-3.21 3.014M1.06 12.886l4.16 1.698m40.719-1.634l-4.205 1.57" stroke="#fff" stroke-width="1.5" stroke-linecap="round" stroke-linejoin="round"/><path clip-rule="evenodd" d="M45.51 43.45H1.466a.478.478 0 01-.204-.039.45.45 0 01-.164-.12.414.414 0 01-.085-.372l.407-1.591c.502-1.825 1.637-3.442 3.225-4.595a9.43 9.43 0 015.548-1.773h26.588a9.43 9.43 0 015.548 1.773c1.588 1.153 2.723 2.77 3.225 4.595l.407 1.528a.4.4 0 01-.046.418.447.447 0 01-.179.138.479.479 0 01-.228.038z" stroke="#fff" stroke-width="1.5" stroke-linecap="round" stroke-linejoin="round"/></svg>