<svg width="45" height="45" fill="none" xmlns="http://www.w3.org/2000/svg"><path d="M44.062 21.563h-1.218c-.47-10.5-8.907-18.938-19.407-19.407V.937c0-.562-.375-.937-.937-.937-.563 0-.938.375-.938.937v1.22c-10.5.468-18.937 8.905-19.406 19.406H.937c-.562 0-.937.374-.937.937 0 .563.375.937.937.937h1.22c.468 10.5 8.905 18.938 19.406 19.407v1.218c0 .563.374.938.937.938.563 0 .937-.375.937-.938v-1.218c10.5-.47 18.938-8.907 19.407-19.407h1.218c.563 0 .938-.375.938-.937 0-.563-.375-.938-.938-.938zm-3.093 0h-4.407C36.094 14.53 30.47 9 23.532 8.53V4.125c9.374.375 16.968 7.969 17.437 17.438zm-18.47 6.843a5.882 5.882 0 01-5.905-5.906 5.882 5.882 0 015.906-5.906 5.882 5.882 0 015.906 5.906 5.882 5.882 0 01-5.906 5.906zm-.936-13.594c-3.563.47-6.282 3.188-6.75 6.75h-4.407c.469-6 5.25-10.687 11.156-11.156v4.406zm-6.75 8.625C15.28 27 18 29.72 21.562 30.187v4.407c-6-.47-10.688-5.25-11.157-11.157h4.406zm8.624 6.75C27 29.72 29.72 27 30.187 23.437h4.407c-.47 6-5.25 10.688-11.157 11.157v-4.407zm6.75-8.625c-.468-3.562-3.187-6.28-6.75-6.75v-4.406c6 .469 10.688 5.25 11.157 11.156h-4.407zm-8.625-17.53v4.405C14.532 8.907 9 14.531 8.533 21.47H4.124C4.5 12.094 12.094 4.5 21.563 4.03zM4.032 23.436h4.405C8.907 30.47 14.531 36 21.47 36.468v4.407C12.094 40.5 4.5 32.906 4.03 23.437zM23.436 40.97v-4.407C30.47 36.094 36 30.47 36.468 23.532h4.407C40.5 32.905 32.906 40.5 23.437 40.968z" fill="#fff"/></svg>