<svg width="45" height="45" fill="none" xmlns="http://www.w3.org/2000/svg"><path d="M43.565 18.957h-.027l-3.713-4.95v-.028l-.028-.029c-.83-1.002-2.074-2.25-3.797-2.25h-7.2c-.32 0-.616.067-.9.17-.654.337-1.804 1.12-1.8 2.446V24.3h-1.8v-9.9a.9.9 0 00-.9-.9h-3.6V3.6a.9.9 0 00-.9-.9H8.1a.9.9 0 00-.9.9v9.9H3.6a.9.9 0 00-.9.9v9.9H.9a.9.9 0 00-.9.9v5.4c0 1.985 1.615 3.6 3.6 3.6h3.681c.43 2.55 2.648 4.5 5.319 4.5s4.888-1.95 5.319-4.5h11.866c.429 2.552 2.646 4.5 5.315 4.5 2.664 0 4.886-1.955 5.318-4.5H42.3c1.494 0 2.7-1.206 2.7-2.7v-8.663c0-2.06-1.435-3.88-1.435-3.88zM39.91 17.1l2.194 2.925s.815 1.396.984 2.475H34.2c-.151 0-.394-.113-.59-.31-.197-.197-.31-.439-.31-.59V18c0-.454.535-.9.9-.9h5.71zM22.5 24.3h-9v-9h9v9zM9 4.5h9v9H9v-9zM4.5 15.3h7.2v9H4.5v-9zm8.1 21.6A3.604 3.604 0 019 33.3c0-1.985 1.615-3.6 3.6-3.6s3.6 1.615 3.6 3.6-1.615 3.6-3.6 3.6zm22.5 0c-2 0-3.6-1.6-3.6-3.6s1.6-3.6 3.6-3.6 3.6 1.6 3.6 3.6-1.6 3.6-3.6 3.6zm8.1-5.4c0 .337-.563.9-.9.9h-1.882c-.432-2.545-2.655-4.5-5.318-4.5a5.398 5.398 0 00-5.315 4.5H17.919c-.43-2.55-2.648-4.5-5.319-4.5s-4.888 1.95-5.319 4.5H3.6c-.993 0-1.8-.807-1.8-1.8v-4.5H27a.9.9 0 00.9-.9V14.4c0-.338.563-.9.9-.9H36c.706 0 1.702.756 2.39 1.575.008.01.021.018.028.028l.142.197H34.2c-1.435 0-2.7 1.16-2.7 2.7v3.6c0 .749.337 1.407.815 1.885.478.477 1.136.815 1.885.815h9v7.2z" fill="#fff"/></svg>