<svg width="44" height="47" fill="none" xmlns="http://www.w3.org/2000/svg"><path d="M21.737 46c12.097 0 20.738-4.286 20.738-13.825 0-10.368-5.185-17.281-15.553-22.465L31 4.456A2.281 2.281 0 0029.064 1H14.41a2.281 2.281 0 00-1.935 3.456l4.078 5.288C6.184 14.964 1 21.876 1 32.244 1 41.714 9.64 46 21.737 46z" stroke="#fff" stroke-width="2" stroke-linecap="round" stroke-linejoin="round"/><path d="M25.347 30.698H14.825V28.47h10.522c.972 0 1.774-.169 2.408-.506.634-.345 1.107-.81 1.417-1.398.31-.594.465-1.269.465-2.025s-.155-1.428-.465-2.015c-.31-.594-.783-1.06-1.417-1.397-.634-.345-1.436-.517-2.408-.517h-4.735v18.51h-2.509V18.385h7.244c1.538 0 2.806.28 3.805.84.998.56 1.74 1.306 2.226 2.238.485.931.728 1.958.728 3.078 0 1.12-.243 2.147-.729 3.078-.485.932-1.227 1.678-2.225 2.238-.999.56-2.267.84-3.805.84zm-.162 1.944v2.227h-10.36v-2.227h10.36z" fill="#fff"/></svg>