<svg width="14" height="18" fill="none" xmlns="http://www.w3.org/2000/svg"><path d="M12.936 7.27h-.35V5.627c0-3.037-2.41-5.573-5.422-5.627a12.192 12.192 0 00-.328 0C3.824.054 1.415 2.59 1.415 5.627v1.641h-.351c-.54 0-.981.558-.981 1.247v8.233c0 .688.44 1.251.981 1.251h11.872c.54 0 .981-.563.981-1.251V8.516c0-.69-.44-1.247-.981-1.247zm-4.824 5.354v2.488a.531.531 0 01-.523.526H6.41a.531.531 0 01-.523-.526v-2.488a1.48 1.48 0 01-.438-1.065c0-.789.61-1.467 1.386-1.498.082-.003.246-.003.329 0 .775.031 1.385.71 1.385 1.498 0 .417-.161.793-.438 1.065zm2.162-5.355H3.726V5.628c0-1.809 1.47-3.304 3.274-3.304s3.274 1.495 3.274 3.304v1.641z" fill="#5A6A7D"/></svg>